<svg width="143" height="141" viewBox="0 0 143 141" fill="none" xmlns="http://www.w3.org/2000/svg">
<g filter="url(#filter0_d_354_1822)">
<path d="M71.2847 119.955C100.067 119.955 123.4 97.2365 123.4 69.212C123.4 41.1875 100.067 18.4691 71.2847 18.4691C42.5025 18.4691 19.1699 41.1875 19.1699 69.212C19.1699 97.2365 42.5025 119.955 71.2847 119.955Z" fill="#6368ED"/>
</g>
<path d="M95.0325 67.7872C92.8788 58.2417 89.6373 53.1469 84.8291 51.7553C83.818 51.4646 82.77 51.3194 81.7166 51.3242C80.3244 51.3242 79.112 51.6567 77.8289 52.0091C76.2838 52.4342 74.5282 52.9169 71.9681 52.9169C69.4078 52.9169 67.6509 52.4351 66.1024 52.0101C64.8188 51.6567 63.6073 51.3242 62.2191 51.3242C61.1299 51.3205 60.0455 51.4652 58.997 51.7542C54.2141 53.1399 50.9747 58.2328 48.7893 67.7813C46.4395 78.0566 47.5961 84.5441 52.0328 86.0493C52.6409 86.2595 53.2808 86.3672 53.9256 86.3695C56.965 86.3695 59.4022 83.888 61.0675 81.8562C62.9492 79.5565 65.1519 78.3903 71.9681 78.3903C78.0556 78.3903 80.5749 79.1989 82.7516 81.8562C84.1192 83.5267 85.4115 84.6952 86.7015 85.4306C88.4164 86.4084 90.1305 86.6253 91.7955 86.065C94.417 85.1882 95.9199 82.8691 96.2633 79.172C96.5245 76.3375 96.1219 72.6134 95.0325 67.7872Z" fill="#FFFFFE"/>
<path d="M138.108 70.7901C139.148 70.8956 140.055 71.224 140.83 71.7738C141.605 72.3342 142.178 73.0396 142.55 73.8895C142.932 74.7505 143.071 75.6624 142.967 76.6245C142.849 77.7257 142.464 78.6743 141.812 79.471C141.169 80.2782 140.318 80.8228 139.258 81.1063L139.476 79.0678C140.065 78.8568 140.523 78.5277 140.849 78.0788C141.175 77.6307 141.372 77.0943 141.439 76.4696C141.513 75.7851 141.42 75.159 141.161 74.5904C140.903 74.0226 140.495 73.555 139.937 73.1877C139.378 72.8301 138.706 72.6109 137.921 72.5309C137.137 72.4516 136.433 72.5302 135.811 72.7681C135.186 73.0149 134.683 73.3905 134.3 73.8924C133.926 74.3967 133.703 74.9907 133.629 75.6752C133.562 76.2998 133.64 76.8646 133.865 77.3689C134.088 77.8731 134.466 78.2875 134.998 78.6122L134.779 80.6508C133.802 80.16 133.084 79.4553 132.627 78.5366C132.168 77.6277 131.998 76.6223 132.116 75.5211C132.22 74.5485 132.545 73.6845 133.089 72.9274C133.644 72.1711 134.36 71.5973 135.237 71.2053C136.112 70.823 137.069 70.6846 138.108 70.7901Z" fill="#6D685B"/>
<path d="M129.637 87.8075C129.955 86.8911 130.466 86.1168 131.171 85.4846C131.882 84.866 132.71 84.4582 133.653 84.263C134.603 84.0797 135.573 84.1508 136.563 84.4762C137.553 84.8009 138.365 85.3148 138.997 86.0165C139.626 86.7287 140.027 87.5389 140.199 88.4479C140.377 89.3695 140.308 90.2889 139.99 91.2061C139.669 92.1322 139.153 92.905 138.442 93.5237C137.736 94.1551 136.914 94.5643 135.974 94.7506C135.033 94.9369 134.068 94.8673 133.079 94.5426C132.088 94.2172 131.272 93.7017 130.63 92.9963C129.997 92.2946 129.592 91.4821 129.414 90.5605C129.242 89.6515 129.316 88.7336 129.637 87.8075ZM131.079 88.281C130.853 88.9334 130.802 89.564 130.926 90.173C131.06 90.7849 131.359 91.3258 131.825 91.7941C132.296 92.2751 132.905 92.6379 133.653 92.8833C134.4 93.1287 135.106 93.1975 135.771 93.0891C136.432 92.9903 137.001 92.7352 137.479 92.3237C137.957 91.9115 138.308 91.3796 138.534 90.7281C138.76 90.0757 138.81 89.4451 138.687 88.8361C138.562 88.2264 138.27 87.6833 137.808 87.2053C137.343 86.737 136.737 86.3801 135.989 86.1347C135.242 85.8894 134.532 85.8146 133.862 85.9103C133.197 86.018 132.621 86.2769 132.134 86.6853C131.656 87.0968 131.305 87.6287 131.079 88.281Z" fill="#6D685B"/>
<path d="M134.035 104.341C133.445 105.288 132.742 106.005 131.925 106.49C131.111 106.99 130.234 107.225 129.294 107.196C128.358 107.18 127.426 106.898 126.497 106.351C125.568 105.802 124.884 105.131 124.444 104.335C124 103.548 123.817 102.688 123.894 101.754C123.976 100.834 124.311 99.9004 124.9 98.9541L126.707 96.0485L135.842 101.436L134.035 104.341ZM126.122 99.6745C125.475 100.716 125.267 101.684 125.501 102.579C125.734 103.475 126.377 104.233 127.428 104.853C128.488 105.478 129.489 105.689 130.43 105.486C131.371 105.283 132.165 104.661 132.812 103.62L133.712 102.174L127.022 98.2284L126.122 99.6745Z" fill="#6D685B"/>
<path d="M125.409 114.136L123.098 112.074L120.606 114.722L119.553 113.781L122.044 111.134L119.631 108.981L116.828 111.959L115.775 111.019L119.761 106.784L127.646 113.819L123.659 118.055L122.606 117.115L125.409 114.136Z" fill="#6D685B"/>
<path d="M106.53 127.528C106.235 127.083 106.064 126.597 106.018 126.068C105.972 125.539 106.102 125 106.408 124.451C106.72 123.91 107.246 123.406 107.985 122.941L109.612 121.917L107.258 118.374L108.73 117.448L114.528 126.18L111.432 128.13C110.744 128.563 110.085 128.811 109.456 128.875C108.824 128.952 108.261 128.867 107.768 128.619C107.265 128.377 106.853 128.013 106.53 127.528ZM108.761 124.11C108.203 124.461 107.866 124.846 107.752 125.262C107.643 125.687 107.739 126.125 108.04 126.577C108.674 127.532 109.546 127.66 110.656 126.961L112.282 125.938L110.388 123.085L108.761 124.11Z" fill="#6D685B"/>
<path d="M94.1097 125.326L98.0051 128.266L99.2421 127.773L97.6217 123.924L99.2428 123.277L103.293 132.899L99.8798 134.261C99.1214 134.564 98.4276 134.69 97.7976 134.639C97.1576 134.593 96.619 134.404 96.1803 134.072C95.7324 133.744 95.3958 133.312 95.1699 132.777C94.9064 132.15 94.8549 131.502 95.0163 130.833C95.1723 130.179 95.6002 129.603 96.3002 129.109L92.1758 126.097L94.1097 125.326ZM99.7722 129.033L97.9805 129.748C97.3735 129.99 96.9809 130.319 96.8019 130.735C96.6136 131.156 96.6244 131.615 96.8341 132.113C97.0439 132.611 97.3581 132.939 97.7784 133.095C98.2018 133.26 98.7219 133.22 99.3381 132.973L101.13 132.259L99.7722 129.033Z" fill="#6D685B"/>
<path d="M84.1401 128.154C85.1174 127.976 86.0609 128.033 86.9713 128.324C87.8734 128.627 88.6424 129.131 89.2779 129.837C89.9056 130.555 90.3151 131.414 90.5072 132.414C90.6993 133.414 90.6347 134.355 90.3136 135.235C89.9824 136.117 89.4515 136.853 88.7208 137.442C87.9809 138.044 87.1235 138.433 86.1462 138.611C85.1596 138.79 84.2146 138.729 83.3126 138.426C82.4021 138.135 81.6346 137.635 81.0084 136.927C80.383 136.219 79.9742 135.365 79.7821 134.365C79.5908 133.364 79.6538 132.42 79.9734 131.529C80.2938 130.65 80.824 129.908 81.5639 129.307C82.2946 128.718 83.1535 128.333 84.1401 128.154ZM84.4197 129.61C83.7252 129.736 83.1351 130.001 82.6495 130.403C82.1655 130.816 81.8274 131.334 81.6346 131.958C81.4333 132.593 81.4048 133.288 81.55 134.044C81.6945 134.798 81.978 135.432 82.399 135.944C82.8101 136.458 83.3164 136.817 83.9188 137.022C84.5212 137.227 85.1696 137.266 85.8642 137.14C86.5588 137.014 87.1496 136.749 87.6344 136.346C88.12 135.943 88.4642 135.429 88.6678 134.804C88.8607 134.18 88.8845 133.491 88.74 132.736C88.5948 131.981 88.3159 131.342 87.9033 130.818C87.4815 130.306 86.969 129.943 86.3651 129.728C85.7628 129.523 85.1143 129.483 84.4197 129.61Z" fill="#6D685B"/>
<path d="M63.3047 139.549L63.9224 129.167L65.6713 129.266L65.2482 136.376L68.9235 129.45L70.1355 129.518L72.9801 136.812L73.4027 129.702L75.1522 129.801L74.5344 140.182L72.6474 140.076L69.3885 131.724L65.1762 139.654L63.3047 139.549Z" fill="#6D685B"/>
<path d="M54.9606 127.157C55.9103 127.441 56.7187 127.918 57.3859 128.588C58.0403 129.264 58.4803 130.059 58.7061 130.972C58.9191 131.892 58.8717 132.838 58.5642 133.81C58.2568 134.783 57.7508 135.586 57.0464 136.22C56.3323 136.851 55.5108 137.263 54.5822 137.454C53.6407 137.652 52.695 137.608 51.7454 137.323C50.7859 137.035 49.9789 136.554 49.3245 135.877C48.6574 135.208 48.2158 134.418 47.9999 133.508C47.7839 132.598 47.8297 131.657 48.1372 130.684C48.4447 129.711 48.9521 128.904 49.6595 128.26C50.3639 127.626 51.1868 127.21 52.1283 127.012C53.057 126.821 54.0012 126.869 54.9606 127.157ZM54.5129 128.572C53.8374 128.369 53.1885 128.336 52.5664 128.474C51.9412 128.621 51.3943 128.926 50.9257 129.391C50.4444 129.863 50.0876 130.465 49.8554 131.199C49.6233 131.933 49.5715 132.622 49.7002 133.266C49.8191 133.907 50.0962 134.454 50.5313 134.909C50.9666 135.363 51.522 135.691 52.1975 135.894C52.8731 136.096 53.522 136.129 54.1442 135.992C54.7663 135.855 55.3165 135.556 55.7949 135.093C56.2635 134.629 56.6139 134.029 56.846 133.295C57.0782 132.561 57.1363 131.869 57.0205 131.218C56.8918 130.574 56.6113 130.02 56.1791 129.557C55.7439 129.103 55.1885 128.775 54.5129 128.572Z" fill="#6D685B"/>
<path d="M40.0464 127.271C39.463 128.114 38.74 128.741 37.8773 129.149C37.0061 129.552 36.0976 129.715 35.1518 129.636C34.1917 129.56 33.2995 129.252 32.4751 128.711C31.5317 128.093 30.8518 127.318 30.4355 126.383C30.0048 125.452 29.9098 124.464 30.1503 123.419L31.8968 124.564C31.8118 125.169 31.896 125.718 32.1495 126.208C32.4031 126.699 32.7975 127.119 33.333 127.47C33.9194 127.855 34.5308 128.069 35.167 128.113C35.8033 128.157 36.419 128.025 37.0142 127.718C37.6009 127.405 38.1144 126.93 38.5548 126.293C38.9952 125.655 39.2538 125.014 39.3305 124.366C39.3987 123.714 39.2949 123.105 39.019 122.54C38.7373 121.982 38.3033 121.512 37.7168 121.127C37.1814 120.776 36.6325 120.579 36.0701 120.535C35.5077 120.491 34.9545 120.621 34.4105 120.927L32.6638 119.782C33.5672 119.172 34.5431 118.885 35.5914 118.923C36.6312 118.955 37.6228 119.28 38.5661 119.898C39.399 120.444 40.0311 121.129 40.4621 121.952C40.8874 122.783 41.0725 123.668 41.0172 124.606C40.9534 125.538 40.6298 126.426 40.0464 127.271Z" fill="#6D685B"/>
<path d="M28.6093 112.019C29.2938 112.72 29.7584 113.522 30.0029 114.424C30.233 115.326 30.2166 116.228 29.9539 117.132C29.6767 118.036 29.1593 118.838 28.4019 119.538C27.6445 120.239 26.7992 120.698 25.866 120.915C24.9258 121.124 24.0028 121.091 23.097 120.815C22.1767 120.538 21.3743 120.049 20.6898 119.347C19.9981 118.639 19.5373 117.834 19.3072 116.932C19.0627 116.03 19.0753 115.131 19.3451 114.234C19.6149 113.338 20.1285 112.539 20.8859 111.838C21.6433 111.137 22.4923 110.675 23.433 110.451C24.3661 110.234 25.2929 110.264 26.2132 110.541C27.1189 110.818 27.9176 111.31 28.6093 112.019ZM27.5066 113.039C27.0196 112.54 26.4705 112.202 25.8592 112.025C25.2405 111.854 24.6099 111.86 23.9675 112.042C23.3106 112.223 22.6962 112.578 22.1244 113.107C21.5527 113.636 21.1608 114.212 20.9489 114.834C20.7299 115.45 20.6959 116.06 20.8468 116.663C20.9977 117.267 21.3166 117.818 21.8036 118.317C22.2906 118.816 22.8397 119.154 23.451 119.331C24.0622 119.509 24.6927 119.51 25.3421 119.336C25.9845 119.154 26.5916 118.799 27.1634 118.27C27.7351 117.74 28.1342 117.165 28.3606 116.542C28.5725 115.92 28.6068 115.303 28.4633 114.693C28.3124 114.089 27.9934 113.538 27.5066 113.039Z" fill="#6D685B"/>
<path d="M11.5265 108.075C10.9409 107.126 10.6181 106.186 10.5578 105.256C10.4835 104.321 10.6789 103.457 11.1441 102.661C11.5951 101.862 12.2862 101.191 13.217 100.646C14.1478 100.101 15.0771 99.8253 16.0047 99.8185C16.9271 99.8021 17.7942 100.046 18.6062 100.548C19.4041 101.047 20.0958 101.771 20.6813 102.72L22.4776 105.632L13.3227 110.987L11.5265 108.075ZM19.4563 103.437C18.8128 102.393 18.0297 101.764 17.1073 101.547C16.1847 101.33 15.1966 101.53 14.1428 102.147C13.0802 102.768 12.4218 103.531 12.1675 104.437C11.9133 105.342 12.1079 106.316 12.7516 107.359L13.6457 108.808L20.3505 104.886L19.4563 103.437Z" fill="#6D685B"/>
<path d="M6.69409 96.1809L9.6453 95.1515L8.40169 91.7709L9.7471 91.3018L10.9907 94.6825L14.0721 93.6075L12.673 89.8049L14.0184 89.3351L16.0081 94.7446L5.93944 98.2554L3.94971 92.8467L5.29512 92.3776L6.69409 96.1809Z" fill="#6D685B"/>
<path d="M3.35158 73.5707C3.89256 73.5258 4.41379 73.6073 4.91528 73.816C5.41676 74.0248 5.84441 74.3898 6.19845 74.9113C6.5422 75.4334 6.75142 76.1217 6.8261 76.9768L6.99014 78.8552L11.3079 78.4976L11.4564 80.1973L0.815082 81.0786L0.502536 77.5004C0.433079 76.7052 0.517379 76.0222 0.755444 75.4521C0.982423 74.8731 1.32407 74.4287 1.78036 74.1213C2.23582 73.8033 2.75959 73.6193 3.35158 73.5707ZM5.40209 77.0942C5.34569 76.4486 5.15561 75.9788 4.83176 75.6855C4.49777 75.3923 4.05514 75.2688 3.50394 75.3145C2.34031 75.411 1.81447 76.1 1.92649 77.3822L2.09053 79.2607L5.5662 78.9727L5.40209 77.0942Z" fill="#6D685B"/>
<path d="M11.1813 63.7291L6.6848 65.6947L6.55096 66.9899L10.8014 67.4061L10.6261 69.1032L0 68.0626L0.369088 64.4897C0.451106 63.6957 0.66301 63.0398 1.0048 62.5219C1.34762 61.9941 1.77236 61.6196 2.27915 61.3986C2.78694 61.1676 3.33636 61.0811 3.92759 61.139C4.62069 61.2068 5.23213 61.4673 5.76196 61.9202C6.28258 62.3621 6.60274 63 6.7226 63.8337L11.3904 61.7045L11.1813 63.7291ZM5.15967 66.8536L5.35345 64.9779C5.41906 64.3426 5.30512 63.8503 5.01177 63.5008C4.71942 63.1414 4.29808 62.9346 3.74765 62.8807C3.19722 62.8268 2.75274 62.9437 2.41414 63.2313C2.06532 63.5179 1.85765 63.9839 1.79103 64.6289L1.59726 66.5046L5.15967 66.8536Z" fill="#6D685B"/>
<path d="M13.2762 53.8668C12.9766 54.7893 12.4804 55.5728 11.7876 56.2173C11.0881 56.8493 10.2686 57.2718 9.32917 57.4847C8.38306 57.6851 7.41189 57.6319 6.41553 57.3252C5.41924 57.0184 4.59814 56.5197 3.95213 55.8291C3.3092 55.1291 2.89307 54.3261 2.70368 53.4205C2.50768 52.5023 2.55947 51.5819 2.85904 50.6594C3.16176 49.7273 3.66286 48.9453 4.36234 48.3134C5.05514 47.6688 5.86971 47.2449 6.80607 47.0414C7.74243 46.838 8.70875 46.8897 9.70504 47.1965C10.7013 47.5032 11.5273 48.0034 12.1831 48.697C12.8291 49.3876 13.2502 50.192 13.4462 51.1102C13.6356 52.0158 13.5789 52.9347 13.2762 53.8668ZM11.8257 53.4202C12.0388 52.7639 12.0774 52.1324 11.9414 51.5256C11.7956 50.9158 11.4858 50.3811 11.012 49.9213C10.5314 49.449 9.9151 49.0971 9.16298 48.8656C8.41087 48.634 7.70363 48.5784 7.04141 48.6989C6.38219 48.8097 5.81785 49.0753 5.34825 49.4956C4.87865 49.916 4.53729 50.4543 4.32415 51.1105C4.1111 51.7667 4.07253 52.3982 4.20852 53.0051C4.34451 53.6118 4.64793 54.1499 5.11868 54.6191C5.59258 55.0789 6.20555 55.4245 6.95766 55.6561C7.70977 55.8876 8.42024 55.9495 9.08922 55.8416C9.75152 55.7212 10.3223 55.4523 10.8017 55.035C11.2713 54.6147 11.6126 54.0764 11.8257 53.4202Z" fill="#6D685B"/>
<path d="M12.6061 30.8195L21.7203 36.2396L20.8073 37.6952L14.565 33.983L19.1092 40.4021L18.4765 41.4109L10.5282 40.4185L16.7704 44.1307L15.8573 45.5863L6.74316 40.1662L7.72831 38.5956L16.8297 39.7304L11.6289 32.3772L12.6061 30.8195Z" fill="#6D685B"/>
<path d="M27.7904 29.3802C27.0853 30.0619 26.2722 30.5316 25.3512 30.7892C24.4304 31.0329 23.5031 31.0366 22.5695 30.8006C21.636 30.5504 20.8011 30.0643 20.065 29.3423C19.3288 28.6203 18.8392 27.8074 18.5964 26.9038C18.3607 25.993 18.3749 25.0938 18.639 24.2061C18.9032 23.3042 19.3878 22.5124 20.0931 21.8308C20.8055 21.1421 21.6222 20.6759 22.5431 20.4323C23.464 20.1746 24.3876 20.1673 25.3139 20.4104C26.2402 20.6535 27.0714 21.136 27.8077 21.8581C28.5439 22.5801 29.037 23.3965 29.2871 24.3072C29.5301 25.2109 29.5195 26.1136 29.2553 27.0155C28.9912 27.9033 28.5029 28.6915 27.7904 29.3802ZM26.7186 28.329C27.2203 27.8441 27.5556 27.3022 27.7244 26.7033C27.886 26.0973 27.8666 25.4836 27.6661 24.8622C27.4656 24.2267 27.0875 23.6365 26.5318 23.0914C25.976 22.5463 25.3761 22.1774 24.7321 21.9847C24.0954 21.785 23.4689 21.7651 22.8526 21.9252C22.2363 22.0852 21.6773 22.4077 21.1756 22.8925C20.674 23.3775 20.3388 23.9194 20.1699 24.5183C20.0011 25.1172 20.0133 25.7309 20.2065 26.3593C20.407 26.9807 20.7852 27.5639 21.3409 28.109C21.8966 28.654 22.4965 29.03 23.1404 29.2368C23.7844 29.4295 24.4182 29.4494 25.0417 29.2964C25.658 29.1364 26.217 28.8139 26.7186 28.329Z" fill="#6D685B"/>
<path d="M34.5949 16.5097C34.1004 15.6135 33.8689 14.6986 33.9003 13.765C33.9407 12.8266 34.2173 11.9686 34.7301 11.1908C35.2471 10.3995 35.9433 9.77491 36.8186 9.31693C37.8203 8.79296 38.8425 8.56958 39.8853 8.64686C40.9322 8.71067 41.8741 9.0898 42.7109 9.78434L40.8564 10.7545C40.3461 10.3987 39.8088 10.2155 39.2447 10.2048C38.6807 10.1941 38.1144 10.3376 37.5459 10.635C36.9232 10.9607 36.4434 11.3872 36.1063 11.9145C35.7693 12.4419 35.6015 13.0336 35.603 13.6895C35.6135 14.3408 35.8054 15.0046 36.1787 15.6812C36.5521 16.3578 37.0147 16.8801 37.5666 17.2481C38.1276 17.6114 38.7293 17.8062 39.3717 17.8325C40.0094 17.8499 40.6396 17.6958 41.2622 17.37C41.8308 17.0726 42.2662 16.692 42.5684 16.2282C42.8707 15.7643 43.0103 15.227 42.9873 14.6163L44.8418 13.6462C44.9747 14.7089 44.7794 15.6829 44.2561 16.5682C43.7419 17.4486 42.9839 18.1508 41.9822 18.6749C41.0979 19.1375 40.181 19.3623 39.2319 19.3493C38.2779 19.3275 37.3879 19.0741 36.5621 18.5889C35.7452 18.0991 35.0895 17.406 34.5949 16.5097Z" fill="#6D685B"/>
<path d="M53.7607 13.7675C52.8036 14.0276 51.8585 14.0515 50.9255 13.8391C49.9995 13.6143 49.1882 13.1772 48.4914 12.5278C47.8019 11.866 47.3166 11.0452 47.0356 10.0652C46.7546 9.08529 46.7345 8.14321 46.9751 7.23898C47.2257 6.33206 47.6886 5.55382 48.3639 4.90425C49.0462 4.2424 49.866 3.78135 50.8231 3.52124C51.7901 3.25843 52.7366 3.23935 53.6625 3.46408C54.5955 3.67647 55.4055 4.10872 56.0924 4.76091C56.7792 5.41303 57.2631 6.22905 57.544 7.20906C57.825 8.18899 57.8465 9.13586 57.6087 10.0497C57.368 10.954 56.9065 11.737 56.2241 12.3988C55.5488 13.0484 54.7277 13.5046 53.7607 13.7675ZM53.3517 12.3408C54.0325 12.1557 54.5966 11.8419 55.0441 11.3992C55.4887 10.9469 55.7792 10.402 55.9154 9.76434C56.0588 9.11432 56.0245 8.41948 55.8124 7.67969C55.6003 6.93997 55.2614 6.33304 54.7958 5.85889C54.3401 5.38213 53.803 5.06726 53.1848 4.91427C52.5666 4.76128 51.9171 4.77729 51.2363 4.96237C50.5554 5.14738 49.9913 5.4612 49.5439 5.90385C49.0964 6.3465 48.7997 6.88805 48.6535 7.52842C48.5173 8.1661 48.5552 8.8548 48.7672 9.59459C48.9794 10.3343 49.3147 10.9474 49.7732 11.4338C50.2388 11.9079 50.7821 12.2263 51.4031 12.3888C52.0213 12.5419 52.6708 12.5258 53.3517 12.3408Z" fill="#6D685B"/>
<path d="M65.1257 0.92481C66.2612 0.86503 67.2653 1.02693 68.1381 1.41051C69.0206 1.7836 69.7142 2.35641 70.2188 3.12898C70.733 3.89106 71.0196 4.8 71.078 5.85579C71.1364 6.91151 70.952 7.84027 70.5248 8.64193C70.1077 9.443 69.4811 10.0754 68.6451 10.539C67.8188 10.992 66.8378 11.2485 65.7023 11.3082L62.2193 11.4916L61.6426 1.1082L65.1257 0.92481ZM65.6252 9.91879C66.8732 9.85303 67.8114 9.47404 68.4398 8.78168C69.0682 8.08931 69.3492 7.14551 69.2828 5.95028C69.2159 4.74509 68.8312 3.82141 68.1286 3.1791C67.4261 2.53686 66.4508 2.24854 65.2028 2.31422L63.469 2.40556L63.8913 10.0101L65.6252 9.91879Z" fill="#6D685B"/>
<path d="M78.6021 2.31706L78.145 5.33668L81.7937 5.86035L81.5855 7.23693L77.9367 6.71326L77.4596 9.86612L81.564 10.4552L81.3558 11.8318L75.5181 10.9939L77.0778 0.691772L82.9155 1.52961L82.7065 2.90619L78.6021 2.31706Z" fill="#6D685B"/>
<path d="M100.675 10.0342C100.462 10.5203 100.142 10.9299 99.7181 11.263C99.2932 11.5961 98.7615 11.7924 98.1223 11.852C97.4876 11.9024 96.7654 11.759 95.9548 11.4219L94.1746 10.6811L92.4712 14.5609L90.8608 13.8906L95.0574 4.32861L98.4488 5.73983C99.2025 6.05335 99.7819 6.4464 100.188 6.91883C100.606 7.38594 100.848 7.88799 100.914 8.4249C100.988 8.96577 100.908 9.50223 100.675 10.0342ZM96.5165 10.1424C97.1288 10.3972 97.6444 10.4543 98.0623 10.3138C98.4849 10.1641 98.8045 9.8415 99.022 9.34626C99.4807 8.30064 99.1027 7.52494 97.8872 7.0193L96.107 6.27846L94.7363 9.40154L96.5165 10.1424Z" fill="#6D685B"/>
<path d="M105.776 21.294L106.104 16.5054L104.992 15.7827L102.62 19.242L101.163 18.2949L107.093 9.64661L110.16 11.6404C110.841 12.0835 111.337 12.5735 111.646 13.1104C111.964 13.6528 112.104 14.1938 112.067 14.7331C112.038 15.2781 111.859 15.7912 111.529 16.2724C111.142 16.8365 110.619 17.24 109.96 17.4831C109.315 17.7234 108.586 17.6994 107.773 17.4111L107.514 22.4238L105.776 21.294ZM105.768 14.6503L107.378 15.6971C107.924 16.0515 108.424 16.1846 108.878 16.0964C109.341 16.0137 109.726 15.7483 110.034 15.3004C110.341 14.8524 110.444 14.4154 110.342 13.9892C110.245 13.5549 109.92 13.1577 109.367 12.7977L107.756 11.7509L105.768 14.6503Z" fill="#6D685B"/>
<path d="M113.756 27.7154C113.058 27.0262 112.579 26.2328 112.318 25.3352C112.071 24.4377 112.07 23.5349 112.316 22.6267C112.577 21.7187 113.078 20.9076 113.823 20.1935C114.567 19.4792 115.403 19.0055 116.333 18.7723C117.269 18.5461 118.192 18.5633 119.103 18.8237C120.029 19.0841 120.84 19.5589 121.538 20.248C122.242 20.9442 122.718 21.7411 122.964 22.6386C123.226 23.5363 123.23 24.4355 122.978 25.3366C122.724 26.2376 122.225 27.0452 121.482 27.7594C120.737 28.4736 119.897 28.9508 118.961 29.1911C118.032 29.4242 117.104 29.4106 116.179 29.1502C115.268 28.8898 114.461 28.4115 113.756 27.7154ZM114.839 26.6756C115.336 27.1657 115.891 27.4941 116.505 27.6607C117.127 27.8203 117.758 27.8036 118.397 27.6106C119.05 27.4178 119.658 27.0517 120.219 26.5126C120.781 25.9735 121.162 25.3908 121.362 24.7644C121.57 24.1452 121.592 23.5353 121.43 22.9346C121.268 22.3339 120.939 21.7885 120.443 21.2982C119.946 20.8081 119.392 20.4797 118.777 20.3132C118.162 20.1465 117.532 20.1562 116.886 20.342C116.247 20.535 115.647 20.9011 115.085 21.4402C114.523 21.9793 114.135 22.562 113.92 23.1882C113.72 23.8145 113.697 24.4316 113.852 25.0393C114.014 25.64 114.343 26.1853 114.839 26.6756Z" fill="#6D685B"/>
<path d="M135.086 37.9914L125.911 43.3132L125.015 41.8479L131.299 38.203L123.347 39.1228L122.726 38.1074L127.335 31.7246L121.051 35.3695L120.154 33.9041L129.33 28.5823L130.297 30.1633L125.021 37.473L134.127 36.4232L135.086 37.9914Z" fill="#6D685B"/>
<path d="M129.277 51.6814C128.988 50.7556 128.943 49.8362 129.139 48.9232C129.349 48.0167 129.779 47.217 130.43 46.524C131.094 45.8377 131.926 45.3467 132.926 45.0509C133.925 44.7552 134.893 44.7142 135.826 44.928C136.763 45.1512 137.572 45.5841 138.255 46.2267C138.95 46.8759 139.442 47.6635 139.731 48.5892C140.023 49.5245 140.064 50.4454 139.854 51.3518C139.657 52.2649 139.232 53.0632 138.577 53.7465C137.924 54.43 137.097 54.9196 136.097 55.2153C135.097 55.511 134.126 55.5535 133.181 55.3427C132.248 55.1289 131.434 54.6975 130.738 54.0482C130.056 53.4056 129.569 52.6167 129.277 51.6814ZM130.733 51.2509C130.938 51.9094 131.273 52.4514 131.738 52.8769C132.213 53.2995 132.779 53.5698 133.437 53.688C134.107 53.8128 134.82 53.7636 135.575 53.5403C136.329 53.3171 136.945 52.9735 137.421 52.5094C137.9 52.0549 138.211 51.5251 138.355 50.9198C138.497 50.3146 138.466 49.6826 138.261 49.0241C138.055 48.3656 137.72 47.8235 137.255 47.3981C136.791 46.9726 136.228 46.696 135.567 46.5683C134.909 46.4501 134.203 46.5027 133.448 46.7259C132.694 46.9492 132.072 47.2895 131.583 47.7469C131.106 48.2109 130.792 48.747 130.639 49.3552C130.496 49.9604 130.527 50.5923 130.733 51.2509Z" fill="#6D685B"/>
<defs>
<filter id="filter0_d_354_1822" x="16.1699" y="15.4691" width="112.229" height="109.486" filterUnits="userSpaceOnUse" color-interpolation-filters="sRGB">
<feFlood flood-opacity="0" result="BackgroundImageFix"/>
<feColorMatrix in="SourceAlpha" type="matrix" values="0 0 0 0 0 0 0 0 0 0 0 0 0 0 0 0 0 0 127 0" result="hardAlpha"/>
<feOffset dx="1" dy="1"/>
<feGaussianBlur stdDeviation="2"/>
<feComposite in2="hardAlpha" operator="out"/>
<feColorMatrix type="matrix" values="0 0 0 0 0 0 0 0 0 0 0 0 0 0 0 0 0 0 0.25 0"/>
<feBlend mode="normal" in2="BackgroundImageFix" result="effect1_dropShadow_354_1822"/>
<feBlend mode="normal" in="SourceGraphic" in2="effect1_dropShadow_354_1822" result="shape"/>
</filter>
</defs>
</svg>
