<svg width="45" height="45" viewBox="0 0 45 45" fill="none" xmlns="http://www.w3.org/2000/svg">
<path d="M39.6502 0.449951H5.35019C2.65519 0.449951 0.450195 2.65495 0.450195 5.34995V39.6499C0.450195 42.3474 2.65519 44.5499 5.35019 44.5499H22.5002V27.3999H17.6002V21.3362H22.5002V16.3137C22.5002 11.0119 25.4696 7.2879 31.7269 7.2879L36.1442 7.2928V13.675H33.2116C30.7763 13.675 29.8502 15.5028 29.8502 17.1982V21.3386H36.1418L34.7502 27.3999H29.8502V44.5499H39.6502C42.3452 44.5499 44.5502 42.3474 44.5502 39.6499V5.34995C44.5502 2.65495 42.3452 0.449951 39.6502 0.449951Z" fill="#6D685B"/>
</svg>
