<svg width="28" height="25" viewBox="0 0 28 25" fill="none" xmlns="http://www.w3.org/2000/svg">
<path d="M26.822 5.55619C26.5808 5.1404 26.2353 4.7939 25.8193 4.55049C25.4033 4.30708 24.931 4.17507 24.4484 4.16735H6.57646L5.76663 1.02856C5.68481 0.725566 5.50227 0.459055 5.24873 0.272433C4.9952 0.0858114 4.6856 -0.00992573 4.37038 0.000814529H1.57789C1.20758 0.000814529 0.852439 0.147139 0.590592 0.407597C0.328745 0.668056 0.181641 1.02131 0.181641 1.38966C0.181641 1.758 0.328745 2.11126 0.590592 2.37172C0.852439 2.63218 1.20758 2.7785 1.57789 2.7785H3.30924L7.16288 17.028C7.2447 17.331 7.42724 17.5975 7.68078 17.7842C7.93432 17.9708 8.24391 18.0665 8.55913 18.0558H21.1254C21.3832 18.055 21.6358 17.9832 21.8551 17.8484C22.0745 17.7136 22.252 17.521 22.368 17.2919L26.9477 8.1811C27.1462 7.76725 27.2386 7.31095 27.2167 6.85293C27.1948 6.39491 27.0592 5.94941 26.822 5.55619Z" fill="#6D685B"/>
<path d="M7.86146 25.0005C9.01815 25.0005 9.95583 24.0678 9.95583 22.9172C9.95583 21.7667 9.01815 20.834 7.86146 20.834C6.70477 20.834 5.76709 21.7667 5.76709 22.9172C5.76709 24.0678 6.70477 25.0005 7.86146 25.0005Z" fill="#6D685B"/>
<path d="M21.8234 25.0005C22.9801 25.0005 23.9177 24.0678 23.9177 22.9172C23.9177 21.7667 22.9801 20.834 21.8234 20.834C20.6667 20.834 19.729 21.7667 19.729 22.9172C19.729 24.0678 20.6667 25.0005 21.8234 25.0005Z" fill="#6D685B"/>
</svg>
