<svg width="24" height="25" viewBox="0 0 24 25" fill="none" xmlns="http://www.w3.org/2000/svg">
<path d="M22.7052 7.66741C22.5397 7.50072 22.3428 7.36852 22.1258 7.27848C21.9088 7.18844 21.6762 7.14234 21.4413 7.14286H17.8698V6.25C17.8698 4.5924 17.2114 3.00268 16.0393 1.83058C14.8672 0.65848 13.2774 0 11.6198 0C9.96224 0 8.37252 0.65848 7.20042 1.83058C6.02832 3.00268 5.36984 4.5924 5.36984 6.25V7.14286H1.79841C1.32481 7.14286 0.870605 7.33099 0.535719 7.66588C0.200832 8.00077 0.0126953 8.45497 0.0126953 8.92857V20.9821C0.0126953 23.1585 1.85421 25 4.03055 25H19.2091C20.2618 25.0003 21.2729 24.5887 22.0261 23.8532C22.4051 23.4916 22.7069 23.057 22.9133 22.5755C23.1197 22.094 23.2264 21.5757 23.227 21.0519V8.92857C23.2277 8.6943 23.182 8.46221 23.0924 8.24573C23.0028 8.02926 22.8712 7.83269 22.7052 7.66741ZM7.15555 6.25C7.15555 5.066 7.6259 3.93049 8.46311 3.09327C9.30033 2.25606 10.4358 1.78571 11.6198 1.78571C12.8038 1.78571 13.9393 2.25606 14.7766 3.09327C15.6138 3.93049 16.0841 5.066 16.0841 6.25V7.14286H7.15555V6.25Z" fill="#6D685B"/>
</svg>
