<svg width="19" height="25" viewBox="0 0 19 25" fill="none" xmlns="http://www.w3.org/2000/svg">
<path d="M9.43127 0C7.76483 0 6.16664 0.65848 4.98829 1.83058C3.80994 3.00269 3.14795 4.5924 3.14795 6.25C3.14795 7.9076 3.80994 9.49732 4.98829 10.6694C6.16664 11.8415 7.76483 12.5 9.43127 12.5C11.0977 12.5 12.6959 11.8415 13.8742 10.6694C15.0526 9.49732 15.7146 7.9076 15.7146 6.25C15.7146 4.5924 15.0526 3.00269 13.8742 1.83058C12.6959 0.65848 11.0977 0 9.43127 0Z" fill="#6D685B"/>
<path d="M16.9851 24.7366C16.6024 24.8929 16.1925 24.9725 15.7788 24.9708H7.93876V23.4083C7.93876 23.4083 7.93887 21.9765 7.93876 21.0646V14.8146C7.93891 14.5522 9.48342 14.2907 9.43105 14.0335H9.50959C12.4235 14.0335 13.567 14.6365 15.5808 15.913C17.6261 17.2115 18.9346 19.2036 18.9346 21.8458C18.9344 22.2573 18.8525 22.6648 18.6937 23.0447C18.5348 23.4247 18.3021 23.7697 18.0089 24.0601C17.7158 24.3504 17.3678 24.5803 16.9851 24.7366Z" fill="#6D685B"/>
<path d="M1.95579 24.7364C2.33849 24.8927 2.74845 24.9723 3.16215 24.9707H11.0022V23.4082V21.0644V14.8144C11.002 14.5521 9.45719 14.2904 9.50956 14.0332H9.43102C6.51713 14.0332 5.37387 14.6363 3.36007 15.9129C1.31485 17.2113 0.00634766 19.2035 0.00634766 21.8457C0.0065511 22.2572 0.0884198 22.6646 0.24726 23.0446C0.4061 23.4245 0.638786 23.7696 0.931974 24.0599C1.22516 24.3502 1.57308 24.5801 1.95579 24.7364Z" fill="#6D685B"/>
</svg>
