<svg width="44" height="44" viewBox="0 0 44 44" fill="none" xmlns="http://www.w3.org/2000/svg">
<path d="M21.9997 0.333374C27.8865 0.333374 28.621 0.355041 30.9307 0.463374C33.2382 0.571707 34.809 0.933541 36.1913 1.47087C37.6213 2.02121 38.826 2.76654 40.0307 3.96904C41.1324 5.05215 41.9849 6.36232 42.5288 7.80837C43.064 9.18854 43.428 10.7615 43.5363 13.069C43.6382 15.3787 43.6663 16.1132 43.6663 22C43.6663 27.8869 43.6447 28.6214 43.5363 30.931C43.428 33.2385 43.064 34.8094 42.5288 36.1917C41.9865 37.6386 41.1338 38.949 40.0307 40.031C38.9473 41.1324 37.6372 41.9848 36.1913 42.5292C34.8112 43.0644 33.2382 43.4284 30.9307 43.5367C28.621 43.6385 27.8865 43.6667 21.9997 43.6667C16.1128 43.6667 15.3783 43.645 13.0687 43.5367C10.7612 43.4284 9.19034 43.0644 7.80801 42.5292C6.36138 41.9864 5.05098 41.1338 3.96867 40.031C2.86672 38.9481 2.01419 37.6379 1.47051 36.1917C0.933175 34.8115 0.571341 33.2385 0.463008 30.931C0.361174 28.6214 0.333008 27.8869 0.333008 22C0.333008 16.1132 0.354674 15.3787 0.463008 13.069C0.571341 10.7594 0.933175 9.19071 1.47051 7.80837C2.01269 6.36143 2.86542 5.0509 3.96867 3.96904C5.05129 2.86671 6.3616 2.01412 7.80801 1.47087C9.19034 0.933541 10.759 0.571707 13.0687 0.463374C15.3783 0.361541 16.1128 0.333374 21.9997 0.333374ZM21.9997 11.1667C19.1265 11.1667 16.371 12.3081 14.3393 14.3397C12.3077 16.3714 11.1663 19.1269 11.1663 22C11.1663 24.8732 12.3077 27.6287 14.3393 29.6604C16.371 31.692 19.1265 32.8334 21.9997 32.8334C24.8729 32.8334 27.6284 31.692 29.66 29.6604C31.6916 27.6287 32.833 24.8732 32.833 22C32.833 19.1269 31.6916 16.3714 29.66 14.3397C27.6284 12.3081 24.8729 11.1667 21.9997 11.1667ZM36.083 10.625C36.083 9.90674 35.7977 9.21787 35.2898 8.70996C34.7818 8.20205 34.093 7.91671 33.3747 7.91671C32.6564 7.91671 31.9675 8.20205 31.4596 8.70996C30.9517 9.21787 30.6663 9.90674 30.6663 10.625C30.6663 11.3433 30.9517 12.0322 31.4596 12.5401C31.9675 13.048 32.6564 13.3334 33.3747 13.3334C34.093 13.3334 34.7818 13.048 35.2898 12.5401C35.7977 12.0322 36.083 11.3433 36.083 10.625ZM21.9997 15.5C23.7236 15.5 25.3769 16.1849 26.5959 17.4038C27.8149 18.6228 28.4997 20.2761 28.4997 22C28.4997 23.7239 27.8149 25.3772 26.5959 26.5962C25.3769 27.8152 23.7236 28.5 21.9997 28.5C20.2758 28.5 18.6225 27.8152 17.4035 26.5962C16.1845 25.3772 15.4997 23.7239 15.4997 22C15.4997 20.2761 16.1845 18.6228 17.4035 17.4038C18.6225 16.1849 20.2758 15.5 21.9997 15.5Z" fill="#6D685B"/>
</svg>
