<svg width="42" height="56" viewBox="0 0 42 56" fill="none" xmlns="http://www.w3.org/2000/svg">
<path d="M21 28C22.4438 28 23.6801 27.4561 24.7091 26.3683C25.7364 25.2824 26.25 23.9763 26.25 22.45C26.25 20.9237 25.7364 19.6167 24.7091 18.5289C23.6801 17.443 22.4438 16.9 21 16.9C19.5562 16.9 18.3208 17.443 17.2935 18.5289C16.2645 19.6167 15.75 20.9237 15.75 22.45C15.75 23.9763 16.2645 25.2824 17.2935 26.3683C18.3208 27.4561 19.5562 28 21 28ZM21 55.75C13.9563 49.4138 8.69575 43.528 5.2185 38.0927C1.7395 32.6592 0 27.63 0 23.005C0 16.0675 2.11138 10.5406 6.33413 6.42438C10.5551 2.30812 15.4438 0.25 21 0.25C26.5562 0.25 31.4449 2.30812 35.6659 6.42438C39.8886 10.5406 42 16.0675 42 23.005C42 27.63 40.2614 32.6592 36.7841 38.0927C33.3051 43.528 28.0438 49.4138 21 55.75Z" fill="#F2BD25"/>
</svg>
