<svg width="47" height="50" viewBox="0 0 47 50" fill="none" xmlns="http://www.w3.org/2000/svg">
<path d="M20.7174 9.77339C20.7174 8.96156 21.02 8.18298 21.5587 7.60894C22.0975 7.03489 22.8281 6.71239 23.59 6.71239C24.3519 6.71239 25.0826 7.03489 25.6213 7.60894C26.16 8.18298 26.4627 8.96156 26.4627 9.77339C26.4627 10.5852 26.16 11.3638 25.6213 11.9378C25.0826 12.5119 24.3519 12.8344 23.59 12.8344C22.8281 12.8344 22.0975 12.5119 21.5587 11.9378C21.02 11.3638 20.7174 10.5852 20.7174 9.77339ZM31.7143 12.8344C32.0285 11.8778 32.208 10.8447 32.208 9.77339C32.208 4.70361 28.3479 0.590393 23.59 0.590393C18.8322 0.590393 14.972 4.70361 14.972 9.77339C14.972 10.8447 15.1426 11.8778 15.4658 12.8344H11.3812C9.40622 12.8344 7.68262 14.2692 7.19785 16.3163L0.734351 43.8653C0.411176 45.2331 0.698443 46.6871 1.51536 47.8063C2.33227 48.9255 3.58906 49.5664 4.91767 49.5664H42.2624C43.591 49.5664 44.8388 48.9159 45.6557 47.7967C46.4726 46.6776 46.7599 45.2331 46.4367 43.8557L39.9732 16.3067C39.4974 14.2692 37.7738 12.8344 35.7989 12.8344H31.7143Z" fill="#F2BD25"/>
</svg>
