<svg width="56" height="44" viewBox="0 0 56 44" fill="none" xmlns="http://www.w3.org/2000/svg">
<mask id="mask0_507_35" style="mask-type:luminance" maskUnits="userSpaceOnUse" x="0" y="0" width="56" height="44">
<path d="M10.7521 3.31925C18.1427 2.93975 23.8907 2.75 27.9974 2.75C32.1041 2.75 37.8547 2.93975 45.2494 3.32062C47.1844 3.42022 49.0187 4.24059 50.4115 5.62941C51.8043 7.01823 52.6611 8.88111 52.8227 10.8721C53.1614 15.0439 53.3307 18.7179 53.3307 21.8955C53.3307 25.1116 53.1574 28.8365 52.8107 33.0715C52.6498 35.0397 51.8095 36.883 50.4425 38.2664C49.0755 39.6499 47.2726 40.4817 45.3614 40.6106C39.0401 41.0369 33.2521 41.25 27.9974 41.25C22.7441 41.25 16.9574 41.0369 10.6401 40.6106C8.72949 40.4818 6.92708 39.6506 5.56019 38.268C4.1933 36.8854 3.35259 35.043 3.19073 33.0756C2.84006 28.809 2.66406 25.0814 2.66406 21.8955C2.66406 18.7467 2.83606 15.0714 3.1774 10.868C3.33964 8.87747 4.19668 7.01525 5.58946 5.627C6.98223 4.23875 8.81612 3.41877 10.7507 3.31925H10.7521Z" fill="white" stroke="white" stroke-width="4" stroke-linejoin="round"/>
<path d="M24 15.9637V28.0582C23.9999 28.2712 24.0558 28.4803 24.1617 28.6631C24.2677 28.846 24.4197 28.9958 24.6016 29.0966C24.7835 29.1975 24.9885 29.2456 25.1949 29.2359C25.4012 29.2261 25.6011 29.1589 25.7733 29.0414L34.5693 23.0464C34.7265 22.9395 34.8557 22.7942 34.9453 22.6234C35.0349 22.4527 35.0822 22.2617 35.083 22.0675C35.0838 21.8733 35.0381 21.682 34.9499 21.5104C34.8616 21.3389 34.7337 21.1925 34.5773 21.0842L25.78 14.9847C25.6081 14.8656 25.408 14.7969 25.2011 14.786C24.9942 14.775 24.7884 14.8223 24.6055 14.9227C24.4227 15.0232 24.2698 15.1729 24.1631 15.3561C24.0565 15.5392 24.0001 15.7488 24 15.9624V15.9637Z" fill="black" stroke="black" stroke-width="3.429" stroke-linejoin="round"/>
</mask>
<g mask="url(#mask0_507_35)">
<path d="M-4 -11H60V55H-4V-11Z" fill="#6D685B"/>
</g>
</svg>
