<svg width="73" height="70" viewBox="0 0 73 70" fill="none" xmlns="http://www.w3.org/2000/svg">
<path d="M62.1601 69.9999H0.702148C0.702148 15.6124 15.3907 0.129883 72.1601 0.129883V59.9999C72.1601 65.5228 67.683 69.9999 62.1601 69.9999Z" fill="#F2BD25"/>
<path d="M38.6307 20.1224L52.4252 34.2536C52.6342 34.4678 52.7826 34.6997 52.8704 34.9495C52.9568 35.1993 53 35.4669 53 35.7524C53 36.0379 52.9568 36.3055 52.8704 36.5553C52.7826 36.8051 52.6342 37.0371 52.4252 37.2512L38.6307 51.3824C38.2475 51.7749 37.7688 51.9805 37.1948 51.999C36.6193 52.0161 36.1226 51.8106 35.7045 51.3824C35.2865 50.9898 35.0685 50.4995 35.0503 49.9114C35.0336 49.3219 35.2343 48.8131 35.6523 48.3848L45.8937 37.8935H22.537C21.9448 37.8935 21.4481 37.6887 21.0468 37.279C20.6469 36.8679 20.4469 36.359 20.4469 35.7524C20.4469 35.1458 20.6469 34.6376 21.0468 34.2279C21.4481 33.8169 21.9448 33.6113 22.537 33.6113H45.8937L35.6523 23.12C35.2691 22.7274 35.0685 22.2278 35.0503 21.6212C35.0336 21.0146 35.2343 20.515 35.6523 20.1224C36.0355 19.6942 36.5232 19.4801 37.1153 19.4801C37.7075 19.4801 38.2126 19.6942 38.6307 20.1224Z" fill="#FFFFFE"/>
</svg>
