<svg width="35" height="25" viewBox="0 0 35 25" fill="none" xmlns="http://www.w3.org/2000/svg">
<path d="M33.1008 11.7441C31.6094 4.93473 29.3648 1.30032 26.0353 0.307566C25.3354 0.100244 24.6094 -0.00333202 23.8801 8.17048e-05C22.916 8.17048e-05 22.0764 0.237263 21.1883 0.488647C20.1181 0.79187 18.9023 1.13628 17.1296 1.13628C15.3569 1.13628 14.1404 0.79258 13.0681 0.489357C12.1793 0.237263 11.3404 8.17048e-05 10.3791 8.17048e-05C9.62494 -0.00255931 8.87403 0.100687 8.14798 0.306855C4.83602 1.29535 2.5929 4.92834 1.07967 11.7399C-0.547476 19.0698 0.25344 23.6976 3.32561 24.7713C3.74673 24.9212 4.18981 24.9985 4.63632 25C6.74093 25 8.42854 23.2297 9.58175 21.7803C10.8847 20.1399 12.4099 19.3076 17.1296 19.3076C21.3451 19.3076 23.0897 19.885 24.5966 21.7803C25.5438 22.9719 26.4389 23.8056 27.332 24.3304C28.5196 25.0277 29.7066 25.1825 30.8591 24.7827C32.6747 24.1571 33.7154 22.5032 33.9531 19.8658C34.1338 17.8434 33.8553 15.1868 33.1008 11.7441Z" fill="#6368ED"/>
</svg>
