<svg width="47" height="53" viewBox="0 0 47 53" fill="none" xmlns="http://www.w3.org/2000/svg">
<path d="M39.5567 24.3115V16.5138H34.7191V24.3115H27.4626V29.51H34.7191V37.3077H39.5567V29.51H46.8131V24.3115M20.2062 29.51V8.71602C20.2062 4.40127 16.965 0.918274 12.9497 0.918274C8.93451 0.918274 5.6933 4.40127 5.6933 8.71602V29.51C0.347715 33.8247 -0.740751 41.9604 3.27448 47.7047C7.28971 53.4491 14.8606 54.6187 20.2062 50.304C25.5518 45.9892 26.6402 37.8536 22.625 32.1092C21.9442 31.1177 21.1289 30.2416 20.2062 29.51ZM12.9497 6.11677C14.2801 6.11677 15.3686 7.28643 15.3686 8.71602V16.5138H10.5309V8.71602C10.5309 7.28643 11.6194 6.11677 12.9497 6.11677Z" fill="#F2BD25"/>
</svg>
